<?xml version="1.0" encoding="UTF-8"?>
<svg version="1.1" viewBox="0 0 1480 1816" width="1280" height="1280" xmlns="http://www.w3.org/2000/svg">
<path transform="translate(743)" d="m0 0 7 6 6 5v2l4 2 7 8 33 33 7 8 85 85v2l4 2 7 8 30 30 7 8 80 80v2l4 2 7 8 29 29 7 8 201 201 7 8 61 61 7 8 77 77v2l4 2v2l4 2v2l4 2v2l4 2v2l4 2v2l4 2v2l4 2v2l4 2 4 4v2l4 2 6 7 11 11-2 4-5 4-7 8-35 35-8 7-61 61-8 7-174 174-8 7-56 56-8 7-65 65-2 3-4-2-12-24-12-20-12-16-10-13-13-15-16-16-11-9-15-12-24-16-19-11-19-9-4-1-127 127-4-2-122-122v-2h-6l-16 8-18 10-24 16-13 10-10 9-10 8-12 12-9 11-7 8-10 13-16 24-14 27-6 11-4-2-35-35-7-8-35-35-7-8-100-100-7-8-36-36-7-8-101-101-7-8-36-36-7-8-49-49-3-2 1-5 15-14 36-36 7-6 102-102 8-7 33-33 8-7 102-102 8-7 36-36 8-7 31-31-1-4 15-15 6-5 5-6 8-7 78-78 8-7 28-28 8-7 89-89 8-7 30-30 6-5 56-56h2z" fill="#AF0181"/>
<path transform="translate(743)" d="m0 0 7 6 6 5v2l4 2 7 8 33 33 7 8 85 85v2l4 2 7 8 30 30 7 8 80 80v2l4 2 7 8 29 29 7 8 15 15v2h-2l-2 4-4 5h-2v2l-8 7-34 34h-2l-2 4h-2l-2 4h-2v2h-2v2h-2v2l-8 7-40 40-8 7-108 108-8 7-10 10-8 7-78 78h-2v2h-2v2l-8 6-4-2-57-57-7-8-117-117-7-8-26-26-7-8-45-45v-2h-2l-7-8-36-36-7-8-18-18 15-15 6-5 5-6 8-7 78-78 8-7 28-28 8-7 89-89 8-7 30-30 6-5 56-56h2z" fill="#161213"/>
<path transform="translate(738,1560)" d="m0 0 5 3 123 123-2 4-76 76-5 6-6 5-6 7-8 7-22 22-3 1-126-126 2-4 11-10 29-29 4-5 7-6 5-6 7-6 5-6 7-6 5-6 7-6 5-6 7-6 5-6 7-6 5-6 5-4z" fill="#8902FA"/>
<path transform="translate(738,1228)" d="m0 0 5 3 123 123-2 4-124 124-4-2-124-124 2-4 11-10 24-24 5-6 7-6 5-6 7-6 5-6 7-6 5-6 7-6 5-6 8-7 4-5 7-6 5-5 4-5 5-4z" fill="#8902FA"/>
<path transform="translate(736,891)" d="m0 0 7 1 9 10 9 8v2l4 2 86 86 2 1v2l4 2 10 9-6 7-121 121-4-2-122-122v-2h-2l1-4 9-8h2l2-4 8-7 4-5h2l2-4 87-87z" fill="#8902FB"/>
</svg>
